<?xml version="1.0" standalone="no"?>
<!DOCTYPE svg PUBLIC "-//W3C//DTD SVG 1.1//EN" "http://www.w3.org/Graphics/SVG/1.1/DTD/svg11.dtd" >
<svg xmlns="http://www.w3.org/2000/svg">
<metadata>Generated by IcoMoon</metadata>
<defs>
<font id="icomoon" horiz-adv-x="1024">
<font-face units-per-em="1024" ascent="960" descent="-64" />
<missing-glyph horiz-adv-x="1024" />
<glyph unicode="&#x20;" horiz-adv-x="512" d="" />
<glyph unicode="&#xe900;" glyph-name="Access-time" d="M511.576 874.656c-235.52 0-426.24-191.146-426.24-426.666 0-235.523 190.72-426.665 426.24-426.665 235.944 0 427.093 191.142 427.093 426.665 0 235.52-191.149 426.666-427.093 426.666zM512.003 106.656c-188.587 0-341.333 152.749-341.333 341.334s152.746 341.333 341.333 341.333 341.335-152.747 341.335-341.333c0-188.585-152.749-341.334-341.335-341.334zM533.336 661.344h-64v-256l224.002-134.4 32 52.48-192.002 113.92v224z" />
<glyph unicode="&#xe901;" glyph-name="Account-circle" d="M512.003 874.656c-235.52 0-426.667-191.146-426.667-426.666 0-235.523 191.147-426.665 426.667-426.665 235.517 0 426.666 191.142 426.666 426.665 0 235.52-191.149 426.666-426.666 426.666zM512.003 746.656c70.827 0 127.997-57.173 127.997-128s-57.171-128-127.997-128c-70.827 0-128 57.174-128 128s57.173 128 128 128zM512.003 140.787c-106.667 0-200.96 54.618-256 137.389 1.28 84.907 170.667 131.414 256 131.414 84.907 0 254.717-46.507 255.997-131.414-55.040-82.771-149.331-137.389-255.997-137.389z" />
<glyph unicode="&#xe902;" glyph-name="Add-a-photo" d="M128 789.344v128h85.333v-128h128v-85.334h-128v-128h-85.333v128h-128v85.334h128zM256 533.344v128h128v128h298.669l78.080-85.334h135.251c46.931 0 85.331-38.4 85.331-85.333v-512.002c0-46.931-38.4-85.331-85.331-85.331h-682.667c-46.933 0-85.333 38.4-85.333 85.331v426.669h128zM554.667 149.344c117.762 0 213.333 95.571 213.333 213.333 0 117.76-95.571 213.333-213.333 213.333-117.76 0-213.334-95.573-213.334-213.333 0-117.762 95.574-213.333 213.334-213.333zM418.133 362.677c0-75.522 61.014-136.533 136.534-136.533s136.533 61.011 136.533 136.533c0 75.52-61.013 136.533-136.533 136.533s-136.534-61.013-136.534-136.533z" />
<glyph unicode="&#xe903;" glyph-name="Add-comment" d="M938.24 789.323c0 46.933-37.971 85.333-84.902 85.333h-682.668c-46.934 0-85.334-38.4-85.334-85.333v-511.998c0-46.938 38.4-85.338 85.334-85.338h597.331l170.669-170.662-0.429 767.998zM725.338 490.656h-170.668v-170.669h-85.334v170.669h-170.666v85.334h170.666v170.666h85.334v-170.666h170.668v-85.334z" />
<glyph unicode="&#xe904;" glyph-name="Add-photo-alternate" d="M810.669 661.323v-127.573c0 0-84.909-0.427-85.338 0v127.573h-127.998c0 0 0.427 84.907 0 85.333h127.998v128h85.338v-128h128v-85.333h-128zM682.669 490.656v128h-128.002v128h-341.334c-46.933 0-85.333-38.4-85.333-85.333v-511.998c0-46.938 38.4-85.338 85.333-85.338h511.998c46.938 0 85.338 38.4 85.338 85.338v341.331h-128zM213.333 149.325l128 170.662 85.334-128 128 170.669 170.664-213.331h-511.998z" />
<glyph unicode="&#xe905;" glyph-name="Arrow-right-alt" d="M683.091 490.656h-512.427v-85.333h512.427v-127.998l170.24 170.665-170.24 170.666v-128z" />
<glyph unicode="&#xe906;" glyph-name="Author" d="M512 448c106.080 0 192 85.92 192 192s-85.92 192-192 192c-106.080 0-192-85.92-192-192s85.92-192 192-192zM512 352c-128.16 0-384-64.32-384-192v-96h224v64l220.227 220.227c-21.875 2.515-42.3 3.773-60.227 3.773zM672 64h224v96c0 32.378-16.454 60.685-43.104 84.896l-180.896-180.896zM396.797 93.837v-106.65h106.652l314.554 314.554-106.656 106.65-314.55-314.554zM900.48 384.217c11.091 11.092 11.091 29.009 0 40.101l-66.554 66.55c-11.091 11.092-29.011 11.092-40.102 0l-52.045-52.046 106.65-106.652 52.051 52.046z" />
<glyph unicode="&#xe907;" glyph-name="Check" d="M383.999 270.086l-177.92 177.92-60.586-60.16 238.506-238.509 512.001 512.003-60.16 60.16-451.841-451.414z" />
<glyph unicode="&#xe908;" glyph-name="Close" d="M441.981 447.987l-245.060-245.062 70.017-70.016 245.060 245.060 245.057-245.060 70.022 70.016-245.062 245.062 245.056 245.059-70.016 70.017-245.057-245.059-245.059 245.059-70.017-70.017 245.059-245.059z" />
<glyph unicode="&#xe909;" glyph-name="Dashboard" d="M128 405.333h341.333v426.667h-341.333v-426.667zM128 64h341.333v256h-341.333v-256zM554.667 64h341.333v426.667h-341.333v-426.667zM554.667 832v-256h341.333v256h-341.333z" />
<glyph unicode="&#xe90a;" glyph-name="Delete" d="M256.003 149.331c0-46.931 38.4-85.331 85.333-85.331h341.333c46.931 0 85.331 38.4 85.331 85.331v512.002h-511.997v-512.002zM810.669 789.333h-149.331l-42.668 42.667h-213.334l-42.666-42.667h-149.334v-85.333h597.333v85.333z" />
<glyph unicode="&#xe90b;" glyph-name="Dns" d="M853.331 405.333h-682.664c-23.467 0-42.667-19.2-42.667-42.666v-255.998c0-23.469 19.2-42.669 42.667-42.669h682.664c23.469 0 42.669 19.2 42.669 42.669v255.998c0 23.466-19.2 42.666-42.669 42.666zM298.667 149.331c-46.934 0-85.334 38.4-85.334 85.338 0 46.931 38.4 85.331 85.334 85.331s85.333-38.4 85.333-85.331c0-46.938-38.4-85.338-85.333-85.338zM853.331 832h-682.664c-23.467 0-42.667-19.2-42.667-42.667v-256c0-23.466 19.2-42.666 42.667-42.666h682.664c23.469 0 42.669 19.2 42.669 42.666v256c0 23.467-19.2 42.667-42.669 42.667zM298.667 576c-46.934 0-85.334 38.4-85.334 85.333s38.4 85.334 85.334 85.334c46.933 0 85.333-38.4 85.333-85.334s-38.4-85.333-85.333-85.333z" />
<glyph unicode="&#xe90c;" glyph-name="Edit-attributes" d="M752.218 661.344h-480.428c-102.827 0-186.454-95.574-186.454-213.334s83.627-213.335 186.454-213.335h480.428c102.822 0 186.451 95.575 186.451 213.335s-83.629 213.334-186.451 213.334zM308.909 343.050l-109.654 109.654 29.867 29.866 79.787-79.786 150.186 150.186 29.867-29.866-180.053-180.054z" />
<glyph unicode="&#xe90d;" glyph-name="Edit" d="M128 223.987v-160h160l471.891 471.893-159.998 160-471.893-471.893zM883.629 659.613c16.64 16.64 16.64 43.52 0 60.16l-99.84 99.84c-16.64 16.64-43.52 16.64-60.16 0l-78.080-78.080 160-160 78.080 78.080z" />
<glyph unicode="&#xe90e;" glyph-name="Email" d="M853.338 789.344h-682.668c-46.934 0-84.907-38.4-84.907-85.334l-0.427-511.997c0-46.938 38.4-85.338 85.334-85.338h682.668c46.931 0 85.331 38.4 85.331 85.338v511.997c0 46.934-38.4 85.334-85.331 85.334zM853.338 618.677l-341.335-213.333-341.333 213.333v85.333l341.333-213.333 341.335 213.333v-85.333z" />
<glyph unicode="&#xe90f;" glyph-name="Home" d="M426.669 106.669v255.998h170.666v-255.998h213.333v341.331h128l-426.666 384-426.667-384h128v-341.331h213.334z" />
<glyph unicode="&#xe910;" glyph-name="Keyboard-arrow-left" d="M657.498 252.16l-195.415 195.84 195.415 195.84-60.162 60.16-256-256 256-256 60.162 60.16z" />
<glyph unicode="&#xe911;" glyph-name="Keyboard-arrow-right" d="M366.508 252.16l195.414 195.84-195.414 195.84 60.16 60.16 256.001-256-256.001-256-60.16 60.16z" />
<glyph unicode="&#xe912;" glyph-name="Language" d="M511.576 874.656c-235.52 0-426.24-191.146-426.24-426.666 0-235.523 190.72-426.665 426.24-426.665 235.944 0 427.093 191.142 427.093 426.665 0 235.52-191.149 426.666-427.093 426.666zM807.258 618.656h-125.869c-13.651 53.334-33.28 104.534-58.879 151.894 78.508-26.88 143.788-81.494 184.748-151.894zM512.003 787.616c35.413-51.2 63.147-107.946 81.493-168.96h-162.986c18.346 61.014 46.080 117.76 81.493 168.96zM181.763 362.656c-6.827 27.307-11.093 55.894-11.093 85.334s4.266 58.026 11.093 85.333h144.213c-3.413-28.16-5.973-56.32-5.973-85.333s2.56-57.174 5.973-85.334h-144.213zM216.749 277.325h125.866c13.654-53.338 33.28-104.538 58.88-151.898-78.506 26.88-143.786 81.069-184.746 151.898v0zM342.616 618.656h-125.866c40.96 70.827 106.24 125.014 184.746 151.894-25.6-47.36-45.226-98.56-58.88-151.894v0zM512.003 108.365c-35.413 51.2-63.147 107.942-81.493 168.96h162.986c-18.346-61.018-46.080-117.76-81.493-168.96zM611.843 362.656h-199.68c-3.84 28.16-6.827 56.32-6.827 85.334s2.987 57.6 6.827 85.333h199.68c3.84-27.733 6.827-56.32 6.827-85.333s-2.987-57.174-6.827-85.334zM622.509 125.427c25.599 47.36 45.228 98.56 58.879 151.898h125.869c-40.96-70.4-106.24-125.018-184.748-151.898v0zM698.029 362.656c3.411 28.16 5.971 56.32 5.971 85.334s-2.56 57.173-5.971 85.333h144.211c6.829-27.307 11.098-55.893 11.098-85.333s-4.269-58.027-11.098-85.334h-144.211z" />
<glyph unicode="&#xe913;" glyph-name="Lock" d="M768 618.677h-42.669v85.333c0 117.76-95.574 213.334-213.334 213.334s-213.333-95.574-213.333-213.334v-85.333h-42.667c-46.933 0-85.333-38.4-85.333-85.333v-426.669c0-46.931 38.4-85.331 85.333-85.331h512.003c46.931 0 85.331 38.4 85.331 85.331v426.669c0 46.933-38.4 85.333-85.331 85.333zM511.997 234.675c-46.933 0-85.333 38.4-85.333 85.335 0 46.934 38.4 85.334 85.333 85.334s85.333-38.4 85.333-85.334c0-46.935-38.4-85.335-85.333-85.335zM644.262 618.677h-264.532v85.333c0 72.96 59.307 132.267 132.267 132.267s132.265-59.307 132.265-132.267v-85.333z" />
<glyph unicode="&#xe914;" glyph-name="Logout" d="M725.338 661.333l-60.16-60.16 110.080-110.506h-433.922v-85.334h433.922l-110.080-110.082 60.16-60.582 213.331 213.331-213.331 213.333zM170.669 746.667h341.333v85.333h-341.333c-46.934 0-85.334-38.4-85.334-85.333v-597.336c0-46.931 38.4-85.331 85.334-85.331h341.333v85.331h-341.333v597.336z" />
<glyph unicode="&#xe915;" glyph-name="Mail-outline" d="M853.338 789.344h-682.668c-46.934 0-84.907-38.4-84.907-85.334l-0.427-511.997c0-46.938 38.4-85.338 85.334-85.338h682.668c46.931 0 85.331 38.4 85.331 85.338v511.997c0 46.934-38.4 85.334-85.331 85.334zM853.338 192.013h-682.668v426.664l341.333-213.333 341.335 213.333v-426.664zM512.003 490.677l-341.333 213.333h682.668l-341.335-213.333z" />
<glyph unicode="&#xe916;" glyph-name="Mark-as-unread" d="M803.418 661.323h-110.938l-244.477 128-277.333-145.067v-409.6c-46.934 0-85.334 38.4-85.334 85.331v334.083c0 22.613 13.654 46.506 34.134 57.173l328.533 163.413 321.706-163.413c18.349-9.813 31.149-29.867 33.709-49.92zM853.338 618.656h-554.668c-46.934 0-85.334-38.4-85.334-85.333v-383.998c0-46.938 38.4-85.338 85.334-85.338h554.668c46.931 0 85.331 38.4 85.331 85.338v383.998c0 46.933-38.4 85.333-85.331 85.333zM853.338 462.070l-277.335-142.083-277.333 142.083v71.253l277.333-142.080 277.335 142.080v-71.253z" />
<glyph unicode="&#xe917;" glyph-name="Notifications-active" d="M323.417 785.93l-61.013 61.014c-102.4-78.080-169.813-198.4-175.787-334.934h85.334c6.4 113.067 64.426 212.054 151.466 273.92v0zM852.058 512.010h85.331c-6.4 136.534-73.811 256.854-175.782 334.934l-60.589-61.014c86.189-61.866 144.64-160.853 151.040-273.92zM768.006 490.677c0 130.987-69.978 240.64-192.003 269.653v29.014c0 35.413-28.587 64-64 64s-64-28.587-64-64v-29.014c-122.453-29.013-192-138.24-192-269.653v-213.333l-85.333-85.331v-42.669h682.667v42.669l-85.331 85.331v213.333zM512.004 21.344c5.973 0 11.52 0.429 17.067 1.709 27.733 5.971 50.346 24.742 61.44 50.342 4.266 10.24 6.4 21.338 6.4 33.28h-170.667c0.427-46.931 38.4-85.331 85.76-85.331z" />
<glyph unicode="&#xe918;" glyph-name="Notifications-none" d="M511.997 21.344c46.933 0 85.333 38.4 85.333 85.331h-170.666c0-46.931 38.4-85.331 85.333-85.331zM768 277.344v213.333c0 130.987-69.549 240.64-192.003 269.653v29.014c0 35.413-28.587 64-64 64s-64-28.587-64-64v-29.014c-122.027-29.013-192-138.24-192-269.653v-213.333l-85.333-85.331v-42.669h682.667v42.669l-85.331 85.331zM682.662 234.675h-341.332v256.002c0 105.813 64.427 192 170.667 192s170.665-86.187 170.665-192v-256.002z" />
<glyph unicode="&#xe919;" glyph-name="Notifications" d="M511.997 21.344c46.933 0 85.333 38.4 85.333 85.331h-170.666c0-46.931 37.973-85.331 85.333-85.331zM768 277.344v213.333c0 130.987-69.978 240.64-192.003 269.653v29.014c0 35.413-28.587 64-64 64s-64-28.587-64-64v-29.014c-122.453-29.013-192-138.24-192-269.653v-213.333l-85.333-85.331v-42.669h682.667v42.669l-85.331 85.331z" />
<glyph unicode="&#xe91a;" glyph-name="Payment" d="M853.338 789.344h-682.668c-47.36 0-84.907-37.974-84.907-85.334l-0.427-511.997c0-47.36 37.974-85.338 85.334-85.338h682.668c47.36 0 85.331 37.978 85.331 85.338v511.997c0 47.36-37.971 85.334-85.331 85.334zM853.338 192.013h-682.668v255.997h682.668v-255.997zM853.338 618.677h-682.668v85.333h682.668v-85.333z" />
<glyph unicode="&#xe91b;" glyph-name="Perm-contact-calendar" d="M810.669 832.010h-42.669v85.334h-85.331v-85.334h-341.336v85.334h-85.333v-85.334h-42.667c-47.36 0-85.333-38.4-85.333-85.333v-597.333c0-46.931 37.973-85.331 85.333-85.331h597.336c46.931 0 85.331 38.4 85.331 85.331v597.333c0 46.933-38.4 85.333-85.331 85.333zM512 704.010c70.827 0 128-57.173 128-128s-57.173-128-128-128c-70.827 0-128 57.174-128 128s57.173 128 128 128zM768 192.013h-512v42.662c0 85.335 170.667 132.269 256 132.269s256-46.934 256-132.269v-42.662z" />
<glyph unicode="&#xe91c;" glyph-name="Search" d="M681.114 346.44h-35.578l-12.61 12.16c44.136 51.342 70.709 117.996 70.709 190.506 0 161.681-131.059 292.739-292.74 292.739s-292.739-131.057-292.739-292.739c0-161.682 131.057-292.74 292.739-292.74 72.509 0 139.164 26.573 190.506 70.709l12.16-12.61v-35.578l225.185-224.736 67.104 67.104-224.736 225.185zM410.895 346.44c-112.141 0-202.665 90.524-202.665 202.666s90.524 202.665 202.665 202.665c112.141 0 202.666-90.524 202.666-202.665s-90.524-202.666-202.666-202.666z" />
<glyph unicode="&#xe91d;" glyph-name="Send" d="M85.763 64l895.575 384-895.575 384-0.427-298.667 640.002-85.333-640.002-85.333 0.427-298.667z" />
<glyph unicode="&#xe91e;" glyph-name="Share" d="M768 271.494c-32.429 0-61.44-12.851-83.629-32.986l-304.211 177.78c2.133 9.853 3.84 19.706 3.84 29.987s-1.707 20.134-3.84 29.987l300.8 176.065c23.040-21.419 53.331-34.699 87.040-34.699 70.829 0 128 57.403 128 128.514s-57.171 128.514-128 128.514c-70.829 0-128-57.403-128-128.514 0-10.281 1.709-20.134 3.84-29.987l-300.8-176.064c-23.040 21.419-53.333 34.699-87.040 34.699-70.827 0-128-57.404-128-128.515s57.173-128.516 128-128.516c33.707 0 64 13.282 87.040 34.701l303.789-178.208c-2.138-8.992-3.418-18.419-3.418-27.84 0-68.973 55.898-125.088 124.589-125.088s124.589 56.115 124.589 125.088c0 68.966-55.898 125.082-124.589 125.082z" />
<glyph unicode="&#xe91f;" glyph-name="Thumb-down-outline" d="M464.643 180.064l24.32 123.309c5.12 25.171-1.707 51.197-17.92 70.824s-40.107 31.147-65.707 31.147h-234.666v46.080l109.653 252.586h345.173c7.68 0 14.504-6.826 14.504-14.506v-334.507l-175.357-174.933zM426.669 21.344l273.491 273.491c16.218 16.218 25.178 37.975 25.178 60.589v334.080c0 55.040-44.8 99.84-99.842 99.84h-345.6c-30.293 0-58.026-15.787-73.386-41.387l-113.92-262.4c-4.694-10.667-7.254-22.187-7.254-34.133v-46.080c0-46.934 38.4-85.334 85.334-85.334h234.666l-39.253-198.397c-2.133-9.389-0.853-19.629 3.413-28.16 9.814-19.2 22.187-36.698 37.547-52.058l19.627-20.051zM853.338 320.010h85.331v469.334h-85.331c-23.469 0-42.669-19.2-42.669-42.667v-384c0-23.467 19.2-42.667 42.669-42.667z" />
<glyph unicode="&#xe920;" glyph-name="Thumb-down" d="M639.997 832h-384c-35.413 0-65.707-21.333-78.507-52.053l-128.853-300.8c-3.84-9.814-5.973-20.054-5.973-31.147v-85.333c0-46.936 38.4-85.336 85.333-85.336h269.227l-40.534-194.982-1.28-13.658c0-17.491 7.254-33.702 18.774-45.222l45.226-44.8 281.172 281.171c15.36 15.36 24.749 36.691 24.749 60.16v426.667c0 46.933-38.4 85.333-85.334 85.333zM810.662 832v-512h170.669v512h-170.669z" />
<glyph unicode="&#xe921;" glyph-name="Thumb-up-outline" d="M559.363 715.936l-24.32-123.306c-5.12-25.174 1.707-51.2 17.92-70.827s40.107-31.147 65.707-31.147h234.668v-46.080l-109.658-252.589h-345.171c-7.68 0-14.507 6.829-14.507 14.509v334.507l175.36 174.933zM597.336 874.656l-273.493-273.493c-16.213-16.213-25.173-37.973-25.173-60.587v-334.080c0-55.040 44.8-99.84 99.84-99.84h345.599c30.291 0 58.029 15.789 73.389 41.389l113.92 262.398c4.691 10.667 7.251 22.187 7.251 34.133v46.080c0 46.934-38.4 85.334-85.331 85.334h-234.668l39.251 198.4c2.138 9.386 0.858 19.626-3.411 28.16-9.811 19.2-22.186 36.693-37.546 52.053l-19.627 20.053zM170.669 575.99h-85.334v-469.334h85.334c23.466 0 42.666 19.2 42.666 42.669v383.998c0 23.467-19.2 42.667-42.666 42.667z" />
<glyph unicode="&#xe922;" glyph-name="Content-copy" d="M682.667 917.333h-512c-46.933 0-85.333-38.4-85.333-85.333v-597.333h85.333v597.333h512v85.333zM810.667 746.667h-469.333c-46.933 0-85.333-38.4-85.333-85.333v-597.333c0-46.933 38.4-85.333 85.333-85.333h469.333c46.933 0 85.333 38.4 85.333 85.333v597.333c0 46.933-38.4 85.333-85.333 85.333zM810.667 64h-469.333v597.333h469.333v-597.333z" />
<glyph unicode="&#xe923;" glyph-name="Thumb-up" d="M42.664 64.013h170.666v511.997h-170.666v-511.997zM981.331 533.344c0 46.933-38.4 85.333-85.331 85.333h-269.229l40.532 194.987 1.28 13.653c0 17.493-7.251 33.707-18.771 45.227l-45.227 44.8-280.747-281.174c-15.787-15.36-25.173-36.693-25.173-60.16v-426.666c0-46.931 38.4-85.331 85.333-85.331h384.003c35.411 0 65.702 21.331 78.502 52.051l128.858 300.8c3.84 9.813 5.971 20.053 5.971 31.146v85.334z" />
<glyph unicode="&#xe924;" glyph-name="Verified" d="M981.331 448l-104.109 119.040 14.509 157.44-154.029 34.987-80.64 136.533-145.065-62.293-145.067 62.293-80.64-136.107-154.026-34.56 14.506-157.866-104.106-119.467 104.106-119.040-14.506-157.869 154.026-34.982 80.64-136.109 145.067 62.72 145.065-62.291 80.64 136.102 154.029 34.989-14.509 157.44 104.109 119.040zM430.504 246.611l-162.134 162.562 63.147 63.147 98.987-99.413 249.598 250.453 63.149-63.147-312.747-313.602z" />
<glyph unicode="&#xe925;" glyph-name="Visibility-off" d="M511.997 661.333c117.76 0 213.334-95.573 213.334-213.333 0-27.733-5.549-53.76-15.36-78.080l124.589-124.589c64.422 53.76 115.2 123.309 146.342 202.669-73.811 187.307-256 320-469.332 320-59.733 0-116.906-10.667-169.813-29.867l92.16-92.16c24.32 9.814 50.347 15.36 78.080 15.36zM85.331 777.813l116.907-116.906c-70.827-55.040-126.293-128.427-159.573-212.907 73.813-187.309 256-320 469.333-320 66.133 0 129.283 12.8 186.883 35.84l17.92-17.92 125.011-124.589 54.189 54.189-756.483 756.48-54.187-54.187zM321.277 541.867l66.133-66.134c-2.133-8.96-3.413-18.346-3.413-27.733 0-70.827 57.173-128 128-128 9.387 0 18.773 1.28 27.733 3.413l66.134-66.133c-28.587-14.080-60.16-22.611-93.867-22.611-117.76 0-213.333 95.571-213.333 213.331 0 33.707 8.533 65.28 22.613 93.867v0zM505.171 575.147l134.4-134.4 0.852 6.826c0 70.827-57.172 128-127.998 128l-7.254-0.426z" />
<glyph unicode="&#xe926;" glyph-name="Visibility" d="M511.997 768c-213.333 0-395.52-132.693-469.333-320 73.813-187.309 256-320 469.333-320s395.523 132.691 469.334 320c-73.811 187.307-256 320-469.334 320zM511.997 234.669c-117.76 0-213.333 95.571-213.333 213.331s95.573 213.333 213.333 213.333c117.76 0 213.334-95.573 213.334-213.333s-95.574-213.331-213.334-213.331zM511.997 576c-70.827 0-128-57.173-128-128s57.173-128 128-128c70.827 0 128 57.173 128 128s-57.173 128-128 128z" />
<glyph unicode="&#xe927;" glyph-name="Link" d="M166.4 448c0 72.96 59.307 132.267 132.267 132.267h170.667v81.067h-170.667c-117.76 0-213.333-95.573-213.333-213.333s95.573-213.333 213.333-213.333h170.667v81.067h-170.667c-72.96 0-132.267 59.307-132.267 132.267zM341.333 405.333h341.333v85.333h-341.333v-85.333zM725.333 661.333h-170.667v-81.067h170.667c72.96 0 132.267-59.307 132.267-132.267s-59.307-132.267-132.267-132.267h-170.667v-81.067h170.667c117.76 0 213.333 95.573 213.333 213.333s-95.573 213.333-213.333 213.333z" />
<glyph unicode="&#xe928;" glyph-name="Bookmark-border" d="M725.338 832h-426.668c-46.934 0-84.907-38.4-84.907-85.333l-0.427-682.667 298.667 128 298.666-128v682.667c0 46.933-38.4 85.333-85.331 85.333zM725.338 192l-213.335 93.011-213.333-93.011v554.667h426.668v-554.667z" />
<glyph unicode="&#xe929;" glyph-name="Bookmark" d="M725.338 832h-426.668c-46.934 0-84.907-38.4-84.907-85.333l-0.427-682.667 298.667 128 298.666-128v682.667c0 46.933-38.4 85.333-85.331 85.333z" />
<glyph unicode="&#xe92a;" glyph-name="Hamburger" d="M128 192h768v85.331h-768v-85.331zM128 405.333h768v85.334h-768v-85.334zM128 704v-85.333h768v85.333h-768z" />
<glyph unicode="&#xe92b;" glyph-name="Laptop-chromebook" d="M938.669 192v640h-853.336v-640h-85.333v-85.331h1024v85.331h-85.331zM597.333 192h-170.666v42.669h170.666v-42.669zM853.331 320h-682.664v426.667h682.664v-426.667z" />
<glyph unicode="&#xe92c;" glyph-name="Cloud-upload" d="M825.6 531.637c-29.011 147.2-158.291 257.707-313.6 257.707-123.307 0-230.4-69.974-283.733-172.374-128.427-13.653-228.267-122.453-228.267-254.293 0-141.224 114.773-256.002 256-256.002h554.669c117.76 0 213.331 95.578 213.331 213.335 0 112.64-87.469 203.947-198.4 211.627zM597.333 405.344v-170.669h-170.666v170.669h-128l213.333 213.333 213.331-213.333h-127.998z" />
<glyph unicode="&#xe92d;" glyph-name="File-download" d="M810.669 576h-170.669v256h-255.997v-256h-170.667l298.667-298.669 298.666 298.669zM213.336 192v-85.331h597.333v85.331h-597.333z" />
<glyph unicode="&#xe92e;" glyph-name="File-upload" d="M384.003 277.331h255.997v256.002h170.669l-298.666 298.667-298.667-298.667h170.667v-256.002zM213.336 192h597.333v-85.331h-597.333v85.331z" />
<glyph unicode="&#xe92f;" glyph-name="Groups" d="M512 416c69.547 0 130.989-16.64 180.909-38.4 46.080-20.48 75.091-66.56 75.091-116.48v-69.12h-512v68.691c0 50.349 29.013 96.429 75.093 116.482 49.92 22.187 111.36 38.827 180.907 38.827zM170.667 405.333c46.933 0 85.333 38.4 85.333 85.334s-38.4 85.333-85.333 85.333c-46.934 0-85.334-38.4-85.334-85.333s38.4-85.334 85.334-85.334zM218.88 358.4c-15.787 2.56-31.573 4.267-48.213 4.267-42.24 0-82.347-8.96-118.614-24.747-31.573-13.653-52.053-44.371-52.053-78.931v-66.989h192v68.691c0 35.418 9.813 68.696 26.88 97.709zM853.331 405.333c46.938 0 85.338 38.4 85.338 85.334s-38.4 85.333-85.338 85.333c-46.931 0-85.331-38.4-85.331-85.333s38.4-85.334 85.331-85.334zM1024 258.989c0 34.56-20.48 65.278-52.051 78.931-36.269 15.787-76.378 24.747-118.618 24.747-16.64 0-32.422-1.707-48.211-4.267 17.069-29.013 26.88-62.291 26.88-97.709v-68.691h192v66.989zM512 704c70.827 0 128-57.173 128-128s-57.173-128-128-128c-70.827 0-128 57.173-128 128s57.173 128 128 128z" />
<glyph unicode="&#xe930;" glyph-name="Keyboard-arrow-down" d="M316.16 593.5l195.84-195.414 195.84 195.414 60.16-60.16-256-256.003-256 256.003 60.16 60.16z" />
<glyph unicode="&#xe931;" glyph-name="Upload-file" d="M597.331 874.656h-341.333c-46.933 0-84.907-38.4-84.907-85.333l-0.426-682.667c0-46.931 37.973-85.331 84.906-85.331h512.429c46.931 0 85.331 38.4 85.331 85.331v512l-256.001 256zM768 106.656h-512.003v682.667h298.667v-213.333h213.336v-469.334zM341.331 319.565l60.16-60.16 67.84 67.411v-177.491h85.334v177.491l67.84-67.84 60.158 60.589-170.238 171.091-171.094-171.091z" />
<glyph unicode="&#xe932;" glyph-name="Api" d="M597.333 448l-85.333-85.333-85.333 85.333 85.333 85.333 85.333-85.333zM512 704l90.453-90.453 106.667 106.667-197.12 197.12-197.12-197.12 106.667-106.667 90.453 90.453zM256 448l90.453 90.453-106.667 106.667-197.12-197.12 197.12-197.12 106.667 106.667-90.453 90.453zM768 448l-90.453-90.453 106.667-106.667 197.12 197.12-197.12 197.12-106.667-106.667 90.453-90.453zM512 192l-90.453 90.453-106.667-106.667 197.12-197.12 197.12 197.12-106.667 106.667-90.453-90.453z" />
<glyph unicode="&#xe933;" glyph-name="Article" d="M810.667 832h-597.333c-46.933 0-85.333-38.4-85.333-85.333v-597.333c0-46.933 38.4-85.333 85.333-85.333h597.333c46.933 0 85.333 38.4 85.333 85.333v597.333c0 46.933-38.4 85.333-85.333 85.333zM597.333 234.667h-298.667v85.333h298.667v-85.333zM725.333 405.333h-426.667v85.333h426.667v-85.333zM725.333 576h-426.667v85.333h426.667v-85.333z" />
<glyph unicode="&#xe934;" glyph-name="Aspect-ratio" d="M810.667 448h-85.333v-128h-128v-85.333h213.333v213.333zM298.667 576h128v85.333h-213.333v-213.333h85.333v128zM896 832h-768c-46.933 0-85.333-38.4-85.333-85.333v-597.333c0-46.933 38.4-85.333 85.333-85.333h768c46.933 0 85.333 38.4 85.333 85.333v597.333c0 46.933-38.4 85.333-85.333 85.333zM896 148.907h-768v598.187h768v-598.187z" />
<glyph unicode="&#xe935;" glyph-name="Bug-report" d="M853.333 618.667h-119.893c-19.2 33.28-45.653 61.867-77.653 83.627l69.547 69.547-60.16 60.16-92.587-92.587c-19.627 4.693-39.68 7.253-60.587 7.253s-40.96-2.56-60.16-7.253l-93.013 92.587-60.16-60.16 69.12-69.547c-31.573-21.76-58.027-50.347-77.227-83.627h-119.893v-85.333h89.173c-2.133-14.080-3.84-28.16-3.84-42.667v-42.667h-85.333v-85.333h85.333v-42.667c0-14.507 1.707-28.587 3.84-42.667h-89.173v-85.333h119.893c44.373-76.373 126.72-128 221.44-128s177.067 51.627 221.44 128h119.893v85.333h-89.173c2.133 14.080 3.84 28.16 3.84 42.667v42.667h85.333v85.333h-85.333v42.667c0 14.507-1.707 28.587-3.84 42.667h89.173v85.333zM597.333 277.333h-170.667v85.333h170.667v-85.333zM597.333 448h-170.667v85.333h170.667v-85.333z" />
<glyph unicode="&#xe936;" glyph-name="Cached" d="M810.667 618.667l-170.667-170.667h128c0-141.227-114.773-256-256-256-43.093 0-84.053 10.667-119.467 29.867l-62.293-62.293c52.48-33.28 114.773-52.907 181.76-52.907 188.587 0 341.333 152.747 341.333 341.333h128l-170.667 170.667zM256 448c0 141.227 114.773 256 256 256 43.093 0 84.053-10.667 119.467-29.867l62.293 62.293c-52.48 33.28-114.773 52.907-181.76 52.907-188.587 0-341.333-152.747-341.333-341.333h-128l170.667-170.667 170.667 170.667h-128z" />
<glyph unicode="&#xe937;" glyph-name="Description" d="M597.333 874.667h-341.333c-46.933 0-84.907-38.4-84.907-85.333l-0.427-682.667c0-46.933 37.973-85.333 84.907-85.333h512.427c46.933 0 85.333 38.4 85.333 85.333v512l-256 256zM682.667 192h-341.333v85.333h341.333v-85.333zM682.667 362.667h-341.333v85.333h341.333v-85.333zM554.667 576v234.667l234.667-234.667h-234.667z" />
<glyph unicode="&#xe938;" glyph-name="Filter-alt" d="M181.334 720.64c86.187-110.507 245.333-315.307 245.333-315.307v-256c0-23.467 19.2-42.667 42.667-42.667h85.333c23.466 0 42.666 19.2 42.666 42.667v256c0 0 158.72 204.8 244.907 315.307 21.76 28.16 1.707 68.693-33.707 68.693h-593.493c-35.413 0-55.467-40.533-33.707-68.693z" />
<glyph unicode="&#xe939;" glyph-name="Fingerprint" d="M759.893 769.28c-3.413 0-6.827 0.853-9.813 2.56-81.92 42.24-152.747 60.16-237.65 60.16-84.48 0-164.693-20.053-237.653-60.16-10.24-5.547-23.040-1.707-29.013 8.533-5.547 10.24-1.707 23.467 8.533 29.013 79.36 43.093 166.4 65.28 258.133 65.28 90.877 0 170.243-20.053 257.283-64.853 10.667-5.547 14.501-18.347 8.954-28.587-3.84-7.68-11.093-11.947-18.773-11.947zM149.336 545.28c-4.267 0-8.533 1.28-12.373 3.84-9.813 6.827-11.947 20.053-5.12 29.867 42.24 59.733 96 106.667 160 139.52 133.973 69.12 305.49 69.547 439.89 0.427 64-32.853 117.76-79.36 160-138.667 6.827-9.387 4.699-23.040-5.114-29.867s-23.046-4.693-29.872 5.12c-38.4 53.76-87.034 96-144.64 125.44-122.448 62.72-279.037 62.72-401.064-0.427-58.027-29.867-106.667-72.533-145.067-126.293-3.413-5.973-9.813-8.96-16.64-8.96zM416.003 30.293c-5.547 0-11.093 2.133-14.933 6.4-37.12 37.12-57.173 61.013-85.76 112.64-29.44 52.48-44.8 116.48-44.8 185.173 0 126.72 108.373 229.973 241.493 229.973 133.117 0 241.49-103.253 241.49-229.973 0-11.947-9.387-21.333-21.333-21.333s-21.333 9.387-21.333 21.333c0 103.253-89.173 187.307-198.824 187.307-109.653 0-198.827-84.053-198.827-187.307 0-61.44 13.653-118.187 39.68-164.267 27.307-49.067 46.080-69.973 78.933-103.253 8.107-8.533 8.107-21.76 0-30.293-4.693-4.267-10.24-6.4-15.787-6.4zM721.92 109.227c-50.773 0-95.573 12.8-132.267 37.973-63.57 43.093-101.544 113.067-101.544 187.307 0 11.947 9.387 21.333 21.333 21.333s21.333-9.387 21.333-21.333c0-60.16 30.72-116.907 82.77-151.893 30.293-20.48 65.707-30.293 108.373-30.293 10.24 0 27.307 1.28 44.373 4.267 11.52 2.133 22.619-5.547 24.752-17.493 2.133-11.52-5.552-22.613-17.499-24.747-24.32-4.693-45.653-5.12-51.627-5.12zM636.16 21.333c-1.707 0-3.84 0.427-5.547 0.853-67.837 18.773-112.21 43.947-158.717 89.6-59.733 59.307-92.587 138.24-92.587 222.72 0 69.12 58.88 125.44 131.413 125.44 72.53 0 131.41-56.32 131.41-125.44 0-45.653 39.68-82.773 88.747-82.773s88.747 37.12 88.747 82.773c0 160.853-138.667 291.413-309.33 291.413-121.173 0-232.107-67.413-282.027-171.947-16.64-34.56-25.173-75.093-25.173-119.467 0-33.28 2.987-85.76 28.587-154.027 4.267-11.093-1.28-23.467-12.373-27.307-11.093-4.267-23.467 1.707-27.307 12.373-20.907 55.893-31.147 111.36-31.147 168.96 0 51.2 9.813 97.707 29.013 138.24 56.747 119.040 182.613 196.267 320.427 196.267 194.13 0 351.997-149.76 351.997-334.080 0-69.12-58.88-125.44-131.413-125.44s-131.413 56.32-131.413 125.44c0 45.653-39.677 82.773-88.744 82.773s-88.747-37.12-88.747-82.773c0-72.96 28.16-141.227 79.787-192.427 40.533-40.107 79.357-62.293 139.517-78.933 11.52-2.987 17.92-14.933 14.933-26.027-2.133-9.813-11.093-16.213-20.053-16.213z" />
<glyph unicode="&#xe93a;" glyph-name="Check-circle" d="M512 874.667c-235.52 0-426.667-191.147-426.667-426.667s191.147-426.667 426.667-426.667c235.52 0 426.667 191.147 426.667 426.667s-191.147 426.667-426.667 426.667zM426.667 234.667l-213.333 213.333 60.16 60.16 153.173-152.747 323.84 323.84 60.16-60.587-384-384z" />
<glyph unicode="&#xe93b;" glyph-name="Error" d="M512 874.667c-235.52 0-426.667-191.147-426.667-426.667s191.147-426.667 426.667-426.667c235.52 0 426.667 191.147 426.667 426.667s-191.147 426.667-426.667 426.667zM554.667 234.667h-85.333v85.333h85.333v-85.333zM554.667 405.333h-85.333v256h85.333v-256z" />
<glyph unicode="&#xe93c;" glyph-name="Help" d="M512 874.667c-235.52 0-426.667-191.147-426.667-426.667s191.147-426.667 426.667-426.667c235.52 0 426.667 191.147 426.667 426.667s-191.147 426.667-426.667 426.667zM554.667 149.333h-85.333v85.333h85.333v-85.333zM642.987 480l-38.4-39.253c-30.72-31.147-49.92-56.747-49.92-120.747h-85.333v21.333c0 46.933 19.2 89.6 49.92 120.747l52.907 53.76c15.787 15.36 25.173 36.693 25.173 60.16 0 46.933-38.4 85.333-85.333 85.333s-85.333-38.4-85.333-85.333h-85.333c0 94.293 76.373 170.667 170.667 170.667s170.667-76.373 170.667-170.667c0-37.547-15.36-71.68-39.68-96z" />
<glyph unicode="&#xe93d;" glyph-name="Highlight-off" d="M622.507 618.667l-110.507-110.507-110.507 110.507-60.16-60.16 110.507-110.507-110.507-110.507 60.16-60.16 110.507 110.507 110.507-110.507 60.16 60.16-110.507 110.507 110.507 110.507-60.16 60.16zM512 874.667c-235.947 0-426.667-190.72-426.667-426.667s190.72-426.667 426.667-426.667c235.947 0 426.667 190.72 426.667 426.667s-190.72 426.667-426.667 426.667zM512 106.667c-188.16 0-341.333 153.173-341.333 341.333s153.173 341.333 341.333 341.333c188.16 0 341.333-153.173 341.333-341.333s-153.173-341.333-341.333-341.333z" />
<glyph unicode="&#xe93e;" glyph-name="Leaderboard" d="M320 64h-234.667v512h234.667v-512zM629.333 832h-234.667v-768h234.667v768zM938.667 490.667h-234.667v-426.667h234.667v426.667z" />
<glyph unicode="&#xe93f;" glyph-name="Line-style" d="M128 277.333h213.333v85.333h-213.333v-85.333zM405.333 277.333h213.333v85.333h-213.333v-85.333zM682.667 277.333h213.333v85.333h-213.333v-85.333zM128 106.667h85.333v85.333h-85.333v-85.333zM298.667 106.667h85.333v85.333h-85.333v-85.333zM469.333 106.667h85.333v85.333h-85.333v-85.333zM640 106.667h85.333v85.333h-85.333v-85.333zM810.667 106.667h85.333v85.333h-85.333v-85.333zM128 448h341.333v85.333h-341.333v-85.333zM554.667 448h341.333v85.333h-341.333v-85.333zM128 789.333v-170.667h768v170.667h-768z" />
<glyph unicode="&#xe940;" glyph-name="Mark-as-unread1" d="M803.413 661.333h-110.933l-244.48 128-277.333-145.067v-409.6c-46.933 0-85.333 38.4-85.333 85.333v334.080c0 22.613 13.653 46.507 34.133 57.173l328.533 163.413 321.707-163.413c18.347-9.813 31.147-29.867 33.707-49.92zM853.333 618.667h-554.667c-46.933 0-85.333-38.4-85.333-85.333v-384c0-46.933 38.4-85.333 85.333-85.333h554.667c46.933 0 85.333 38.4 85.333 85.333v384c0 46.933-38.4 85.333-85.333 85.333zM853.333 462.080l-277.333-142.080-277.333 142.080v71.253l277.333-142.080 277.333 142.080v-71.253z" />
<glyph unicode="&#xe941;" glyph-name="Note-add" d="M597.333 874.667h-341.333c-46.933 0-84.907-38.4-84.907-85.333l-0.427-682.667c0-46.933 37.973-85.333 84.907-85.333h512.427c46.933 0 85.333 38.4 85.333 85.333v512l-256 256zM682.667 277.333h-128v-128h-85.333v128h-128v85.333h128v128h85.333v-128h128v-85.333zM554.667 576v234.667l234.667-234.667h-234.667z" />
<glyph unicode="&#xe942;" glyph-name="Notification-important" d="M768 277.333v213.333c0 130.987-69.973 240.64-192 269.653v29.013c0 35.413-28.587 64-64 64s-64-28.587-64-64v-29.013c-122.453-29.013-192-138.24-192-269.653v-213.333l-85.333-85.333v-42.667h682.667v42.667l-85.333 85.333zM554.667 277.333h-85.333v85.333h85.333v-85.333zM554.667 448h-85.333v170.667h85.333v-170.667zM512 21.333c46.933 0 85.333 38.4 85.333 85.333h-170.667c0-46.933 37.973-85.333 85.333-85.333z" />
<glyph unicode="&#xe943;" glyph-name="Privacy-tip" d="M512 917.333l-384-170.667v-256c0-236.8 163.84-458.24 384-512 220.16 53.76 384 275.2 384 512v256l-384 170.667zM469.333 661.333h85.333v-85.333h-85.333v85.333zM469.333 490.667h85.333v-256h-85.333v256z" />
<glyph unicode="&#xe944;" glyph-name="Report-problem" d="M42.667 64h938.667l-469.333 810.667-469.333-810.667zM554.667 192h-85.333v85.333h85.333v-85.333zM554.667 362.667h-85.333v170.667h85.333v-170.667z" />
<glyph unicode="&#xe945;" glyph-name="Verified-user" d="M512 917.333l-384-170.667v-256c0-236.8 163.84-458.24 384-512 220.16 53.76 384 275.2 384 512v256l-384 170.667zM426.667 234.667l-170.667 170.667 60.16 60.16 110.507-110.080 281.173 281.173 60.16-60.587-341.333-341.333z" />
</font>
</defs>
</svg>
