<svg width="60" height="60" viewBox="0 0 60 60" fill="none" xmlns="http://www.w3.org/2000/svg">
<g clip-path="url(#clip0_71432_1431)">
<path d="M18.9502 10.2L15.3752 6.625C9.37519 11.2 5.4252 18.25 5.0752 26.25H10.0752C10.4502 19.625 13.8502 13.825 18.9502 10.2V10.2ZM49.9252 26.25H54.9252C54.5502 18.25 50.6002 11.2 44.6252 6.625L41.0752 10.2C46.1252 13.825 49.5502 19.625 49.9252 26.25ZM45.0002 27.5C45.0002 19.825 40.9002 13.4 33.7502 11.7V10C33.7502 7.925 32.0752 6.25 30.0002 6.25C27.9252 6.25 26.2502 7.925 26.2502 10V11.7C19.0752 13.4 15.0002 19.8 15.0002 27.5V40L10.0002 45V47.5H50.0002V45L45.0002 40V27.5ZM30.0002 55C30.3502 55 30.6752 54.975 31.0002 54.9C32.6252 54.55 33.9502 53.45 34.6002 51.95C34.8502 51.35 34.9752 50.7 34.9752 50H24.9752C25.0002 52.75 27.2252 55 30.0002 55Z" fill="#F3ECFF"/>
</g>
<defs>
<clipPath id="clip0_71432_1431">
<rect width="60" height="60" fill="white"/>
</clipPath>
</defs>
</svg>
