<svg width="60" height="60" viewBox="0 0 60 60" fill="none" xmlns="http://www.w3.org/2000/svg">
<path d="M5 52.4545H14.0909V25.1818H5V52.4545ZM55 27.4545C55 24.9545 52.9545 22.9091 50.4545 22.9091H36.1136L38.2727 12.5227L38.3409 11.7955C38.3409 10.8636 37.9545 10 37.3409 9.38636L34.9318 7L19.9773 21.9773C19.1364 22.7955 18.6364 23.9318 18.6364 25.1818V47.9091C18.6364 50.4091 20.6818 52.4545 23.1818 52.4545H43.6364C45.5227 52.4545 47.1364 51.3182 47.8182 49.6818L54.6818 33.6591C54.8864 33.1364 55 32.5909 55 32V27.4545Z" fill="#F3ECFF"/>
</svg>
