<svg width="16" height="16" viewBox="0 0 16 16" fill="none" xmlns="http://www.w3.org/2000/svg">
<rect width="16" height="16" rx="8" fill="#5865F2"/>
<path d="M11.471 4.63473C10.814 4.33394 10.1204 4.12054 9.40789 4C9.31039 4.17429 9.22218 4.3536 9.14361 4.5372C8.3847 4.42284 7.61293 4.42284 6.85401 4.5372C6.7754 4.35362 6.68719 4.17431 6.58974 4C5.87681 4.12156 5.18275 4.33546 4.52508 4.63631C3.21944 6.56804 2.8655 8.45179 3.04247 10.3088C3.80709 10.8737 4.66291 11.3034 5.57275 11.579C5.77761 11.3035 5.9589 11.0112 6.11467 10.7052C5.8188 10.5947 5.53324 10.4584 5.26128 10.2978C5.33285 10.2459 5.40286 10.1924 5.4705 10.1405C6.26183 10.5126 7.12552 10.7056 7.99999 10.7056C8.87446 10.7056 9.73816 10.5126 10.5295 10.1405C10.5979 10.1963 10.6679 10.2498 10.7387 10.2978C10.4662 10.4586 10.1801 10.5952 9.88374 10.706C10.0393 11.0118 10.2206 11.3039 10.4257 11.579C11.3363 11.3045 12.1928 10.875 12.9575 10.3096C13.1652 8.15605 12.6028 6.2896 11.471 4.63473ZM6.33883 9.16675C5.84567 9.16675 5.43825 8.71921 5.43825 8.16863C5.43825 7.61806 5.83152 7.16659 6.33726 7.16659C6.843 7.16659 7.24728 7.61806 7.23863 8.16863C7.22997 8.71921 6.84143 9.16675 6.33883 9.16675ZM9.66115 9.16675C9.16721 9.16675 8.76136 8.71921 8.76136 8.16863C8.76136 7.61806 9.15462 7.16659 9.66115 7.16659C10.1677 7.16659 10.5688 7.61806 10.5602 8.16863C10.5515 8.71921 10.1637 9.16675 9.66115 9.16675Z" fill="white"/>
</svg>
